# Blender 4.2.1 LTS
# www.blender.org
o Cube.002
v 0.849692 0.971053 0.811716
v 0.841889 0.982468 0.257074
v 0.728901 1.787633 0.514682
v -0.141704 0.964421 0.498580
v 1.000000 1.000000 -1.000000
v 1.000000 -1.000000 -1.000000
v 1.000000 1.000000 1.000000
v 1.000000 -1.000000 1.000000
v -1.000000 1.000000 -1.000000
v -1.000000 -1.000000 -1.000000
v -1.000000 1.000000 1.000000
v -1.000000 -1.000000 1.000000
v 0.849692 0.971053 -0.227250
v 0.841889 0.982468 -0.781891
v 0.728901 1.787633 -0.524284
v -0.141704 0.964421 -0.540386
v 0.849692 0.971053 0.811716
v 0.728901 1.787633 0.514682
v -0.141704 0.964421 0.498580
v 0.841889 0.982468 0.257074
v 0.728901 1.787633 0.514682
v -0.141704 0.964421 0.498580
v 0.841889 0.982468 0.257074
v 0.728901 1.787633 0.514682
v -0.141704 0.964421 0.498580
v 0.841889 0.982468 0.257074
v 0.728901 1.787633 0.514682
v -0.141704 0.964421 0.498580
v 0.849692 0.971053 -0.227250
v 0.728901 1.787633 -0.524284
v -0.141704 0.964421 -0.540386
v 0.841889 0.982468 -0.781891
v 0.728901 1.787633 -0.524284
v -0.141704 0.964421 -0.540386
vn -0.2901 0.2890 0.9123
vn -0.2344 0.2662 -0.9350
vn -0.6871 0.7266 0.0016
vn -0.6870 0.7266 -0.0006
vn -0.5774 -0.5773 0.5773
vn -0.5773 0.5774 0.5774
vn -0.5773 -0.5774 -0.5774
vn -0.5774 0.5773 -0.5773
vn 0.5773 -0.5774 0.5774
vn 0.5774 0.5773 0.5773
vn 0.5774 -0.5773 -0.5773
vn 0.5773 0.5774 -0.5774
vn 0.2901 -0.2890 -0.9123
vn 0.2344 -0.2662 0.9350
vt 0.375000 0.750000
vt 0.625000 1.000000
vt 0.375000 1.000000
vt 0.375000 0.000000
vt 0.625000 0.000000
vt 0.375000 0.250000
vt 0.625000 0.750000
vt 0.875000 0.500000
vt 0.625000 0.500000
vt 0.125000 0.750000
vt 0.375000 0.500000
vt 0.125000 0.500000
vt 0.625000 0.250000
vt 0.875000 0.750000
s 1
f 1/1/1 3/2/3 4/3/4
f 4/4/4 3/5/3 2/6/2
f 7/7/7 9/8/9 5/9/5
f 12/3/12 7/7/7 8/1/8
f 10/6/10 11/5/11 12/4/12
f 12/10/12 6/11/6 10/12/10
f 8/1/8 5/9/5 6/11/6
f 6/11/6 9/13/9 10/6/10
f 13/1/1 15/2/3 16/3/4
f 16/4/4 15/5/3 14/6/2
f 17/1/13 19/3/13 18/2/13
f 22/4/2 21/5/2 20/6/2
f 25/4/2 24/5/2 23/6/2
f 28/4/14 26/6/14 27/5/14
f 29/1/13 31/3/13 30/2/13
f 34/4/14 32/6/14 33/5/14
f 7/7/7 11/14/11 9/8/9
f 12/3/12 11/2/11 7/7/7
f 10/6/10 9/13/9 11/5/11
f 12/10/12 8/1/8 6/11/6
f 8/1/8 7/7/7 5/9/5
f 6/11/6 5/9/5 9/13/9
